<svg width="33" height="34" viewBox="0 0 33 34" fill="none" xmlns="http://www.w3.org/2000/svg">
<path d="M20.2824 30.8409V22.5776C20.2824 22.2123 20.1373 21.862 19.879 21.6038C19.6207 21.3455 19.2704 21.2004 18.9051 21.2004H13.3959C13.0306 21.2004 12.6802 21.3455 12.4219 21.6038C12.1637 21.862 12.0185 22.2123 12.0185 22.5776V30.8409C12.0185 31.2062 11.8734 31.5565 11.6151 31.8148C11.3568 32.0731 11.0065 32.2182 10.6412 32.2182H2.37732C2.01203 32.2182 1.6617 32.0731 1.40341 31.8148C1.14511 31.5565 1 31.2062 1 30.8409V14.9168C1.00308 14.7262 1.04428 14.5381 1.12115 14.3637C1.19803 14.1893 1.30903 14.032 1.44763 13.9011L15.2208 1.38556C15.4747 1.15329 15.8064 1.02448 16.1505 1.02448C16.4946 1.02448 16.8263 1.15329 17.0802 1.38556L30.8534 13.9011C30.992 14.032 31.103 14.1893 31.1798 14.3637C31.2567 14.5381 31.2979 14.7262 31.301 14.9168V30.8409C31.301 31.2062 31.1559 31.5565 30.8976 31.8148C30.6393 32.0731 30.289 32.2182 29.9237 32.2182H21.6598C21.2945 32.2182 20.9442 32.0731 20.6859 31.8148C20.4276 31.5565 20.2824 31.2062 20.2824 30.8409Z" stroke="#1156AC" stroke-width="2" stroke-linecap="round" stroke-linejoin="round"/>
</svg>
