<svg width="37" height="36" viewBox="0 0 37 36" fill="none" xmlns="http://www.w3.org/2000/svg">
<path d="M18.2812 0.0498047C20.5058 0.0498047 22.639 0.933875 24.2119 2.50684C25.7849 4.0798 26.6689 6.213 26.6689 8.4375V8.4873H33.75C34.4827 8.4873 35.1851 8.77881 35.7031 9.29688C36.2212 9.81494 36.5127 10.5173 36.5127 11.25V32.3438C36.5127 33.0764 36.2212 33.7788 35.7031 34.2969C35.1851 34.8149 34.4827 35.1064 33.75 35.1064H2.8125C2.07984 35.1064 1.37744 34.8149 0.859375 34.2969C0.341306 33.7788 0.0498047 33.0764 0.0498047 32.3438V11.25C0.0498047 10.5173 0.341306 9.81494 0.859375 9.29688C1.37744 8.77881 2.07984 8.4873 2.8125 8.4873H9.89355V8.4375C9.89355 6.213 10.7776 4.0798 12.3506 2.50684C13.9235 0.933874 16.0567 0.0498047 18.2812 0.0498047ZM2.7627 32.3936H33.7998V11.2002H26.6689V14.0625C26.6689 14.4222 26.5258 14.7671 26.2715 15.0215C26.0171 15.2758 25.6722 15.4189 25.3125 15.4189C24.9528 15.4189 24.6079 15.2758 24.3535 15.0215C24.0992 14.7671 23.9561 14.4222 23.9561 14.0625V11.2002H12.6064V14.0625C12.6064 14.4222 12.4633 14.7671 12.209 15.0215C11.9546 15.2758 11.6097 15.4189 11.25 15.4189C10.8903 15.4189 10.5454 15.2758 10.291 15.0215C10.0367 14.7671 9.89355 14.4222 9.89355 14.0625V11.2002H2.7627V32.3936ZM18.2812 2.7627C16.7761 2.7627 15.3328 3.36054 14.2686 4.4248C13.2043 5.48907 12.6064 6.9324 12.6064 8.4375V8.4873H23.9561V8.4375C23.9561 6.9324 23.3582 5.48907 22.2939 4.4248C21.2297 3.36054 19.7864 2.7627 18.2812 2.7627Z" fill="#1156AC" stroke="#1156AC" stroke-width="0.1"/>
</svg>
