<svg width="40" height="42" viewBox="0 0 40 42" fill="none" xmlns="http://www.w3.org/2000/svg">
<g clip-path="url(#clip0_107_292)">
<path d="M33.8549 9.47451C33.811 9.47451 33.7614 9.47451 33.7175 9.4688L36.6654 8.24188C35.967 8.99825 34.9698 9.47451 33.8535 9.47451H33.8549Z" fill="#9DB2CE"/>
<path d="M9.67712 11.4123L19.3797 7.36615V36.7413L9.67712 40.7877V11.4123ZM33.8549 22.3878C33.8549 22.3878 31.3432 18.7469 29.0794 14.6865C29.0738 14.6737 29.061 14.6552 29.0539 14.6424V40.7877L29.0667 40.7819L29.0794 40.7761L38.7608 36.7413V14.4604C36.4601 18.609 33.8549 22.3878 33.8549 22.3878Z" fill="#9DB2CE"/>
<path d="M9.70257 40.7876L0 36.7399V7.36469L9.70257 11.4108V40.786V40.7876ZM29.0553 14.6424C28.2889 13.2719 27.5523 11.8587 26.9544 10.5251L19.3797 7.36611V36.7399L29.0553 40.7746L29.0681 40.7803L29.0808 40.786V14.6865C29.0752 14.6737 29.0624 14.6552 29.0553 14.6424Z" fill="#F9FFF9"/>
<path d="M33.8573 0.0244751C30.4972 0.0244751 27.7732 2.75841 27.7732 6.1307C27.7732 9.50293 33.8573 18.3303 33.8573 18.3303C33.8573 18.3303 39.9413 9.50293 39.9413 6.1307C39.9413 2.75841 37.2173 0.0244751 33.8573 0.0244751ZM33.8573 8.9371C32.3133 8.9371 31.061 7.68035 31.061 6.1307C31.061 4.58104 32.3133 3.32424 33.8573 3.32424C35.4013 3.32424 36.6535 4.58104 36.6535 6.1307C36.6535 7.68035 35.4013 8.9371 33.8573 8.9371Z" fill="#1156AC"/>
</g>
<defs>
<clipPath id="clip0_107_292">
<rect width="39.9422" height="41.1621" fill="white" transform="translate(0 0.0244751)"/>
</clipPath>
</defs>
</svg>
