<svg width="102" height="102" viewBox="0 0 102 102" fill="none" xmlns="http://www.w3.org/2000/svg">
<rect width="71.6181" height="71.6181" rx="10" transform="matrix(0.707131 0.707083 -0.707131 0.707083 50.6434 0)" fill="#1156AC"/>
<path fill-rule="evenodd" clip-rule="evenodd" d="M46 34.3333C52.4433 34.3333 57.6667 39.5567 57.6667 46C57.6667 52.4433 52.4433 57.6667 46 57.6667C44.5996 57.6667 43.2604 57.4207 42.0208 56.9709C41.4744 56.7727 40.8668 56.7284 40.2741 56.874C38.6823 57.2649 37.0573 57.513 35.4184 57.6143C36.0347 55.9906 36.2476 54.2353 36.031 52.5013C35.9828 52.1156 35.8566 51.7774 35.7068 51.4974C34.8308 49.8611 34.3333 47.9911 34.3333 46C34.3333 39.5567 39.5567 34.3333 46 34.3333ZM61 46C61 37.7157 54.2843 31 46 31C37.7157 31 31 37.7157 31 46C31 48.5278 31.6266 50.9142 32.7344 53.0074C32.9073 54.5504 32.5869 56.1136 31.8122 57.4693L31.7439 57.5889C30.8753 59.1088 31.9728 61 33.7234 61C36.1698 61 38.6022 60.7085 40.9699 60.1353C42.5444 60.6956 44.2384 61 46 61C54.2843 61 61 54.2843 61 46ZM64.9254 44.7635C64.2218 45.357 64.1326 46.4085 64.7261 47.1121C66.5618 49.2883 67.6667 52.0963 67.6667 55.1667C67.6667 57.3043 67.1315 59.312 66.1891 61.0679C66.038 61.3495 65.9126 61.6873 65.8641 62.0708C65.6259 63.9553 65.8697 65.8642 66.5653 67.6204C64.7548 67.5185 62.9593 67.2488 61.202 66.8156C60.6088 66.6694 59.9996 66.7135 59.4513 66.9135C58.1171 67.4003 56.6748 67.6667 55.1667 67.6667C52.0963 67.6667 49.2883 66.5618 47.1121 64.7261C46.4085 64.1326 45.357 64.2218 44.7635 64.9254C44.17 65.6289 44.2593 66.6804 44.9628 67.2739C47.7178 69.5979 51.2806 71 55.1667 71C57.0372 71 58.8353 70.6749 60.5054 70.0769C63.0226 70.6888 65.6091 71 68.2105 71C69.9905 71 71.1065 69.0771 70.2233 67.5316L70.1507 67.4045C69.3134 65.9391 68.969 64.2485 69.1601 62.5807C70.3351 60.3672 71 57.8421 71 55.1667C71 51.2807 69.5979 47.7178 67.2739 44.9628C66.6804 44.2593 65.6289 44.17 64.9254 44.7635ZM39.3333 47.6667C40.2538 47.6667 41 46.9205 41 46C41 45.0795 40.2538 44.3333 39.3333 44.3333C38.4129 44.3333 37.6667 45.0795 37.6667 46C37.6667 46.9205 38.4129 47.6667 39.3333 47.6667ZM47.6667 46C47.6667 46.9205 46.9205 47.6667 46 47.6667C45.0795 47.6667 44.3333 46.9205 44.3333 46C44.3333 45.0795 45.0795 44.3333 46 44.3333C46.9205 44.3333 47.6667 45.0795 47.6667 46ZM52.6667 47.6667C53.5871 47.6667 54.3333 46.9205 54.3333 46C54.3333 45.0795 53.5871 44.3333 52.6667 44.3333C51.7462 44.3333 51 45.0795 51 46C51 46.9205 51.7462 47.6667 52.6667 47.6667Z" fill="white"/>
</svg>
